<svg width="78" height="79" viewBox="0 0 78 79" fill="none" xmlns="http://www.w3.org/2000/svg">
<circle cx="39" cy="39" r="39" fill="#80B5C0"/>
<circle cx="39.1741" cy="27.5218" r="11.0218" stroke="black" stroke-width="3"/>
<mask id="path-3-inside-1" fill="white">
<path d="M59.3479 58.826C59.3479 53.4755 57.2224 48.3442 53.4391 44.5608C49.6557 40.7775 44.5244 38.652 39.1739 38.652C33.8235 38.652 28.6922 40.7775 24.9088 44.5608C21.1255 48.3442 19 53.4755 19 58.826L39.1739 58.826H59.3479Z"/>
</mask>
<path d="M59.3479 58.826C59.3479 53.4755 57.2224 48.3442 53.4391 44.5608C49.6557 40.7775 44.5244 38.652 39.1739 38.652C33.8235 38.652 28.6922 40.7775 24.9088 44.5608C21.1255 48.3442 19 53.4755 19 58.826L39.1739 58.826H59.3479Z" stroke="black" stroke-width="6" mask="url(#path-3-inside-1)"/>
</svg>
