<svg width="78" height="78" viewBox="0 0 78 78" fill="none" xmlns="http://www.w3.org/2000/svg">
<circle cx="39" cy="39" r="39" fill="#80B5C0"/>
<path d="M21.3848 45H18.4551V30.7812H21.3848V45ZM31.4824 41.2695C31.4824 40.7161 31.2871 40.293 30.8965 40C30.5059 39.7005 29.8027 39.388 28.7871 39.0625C27.7715 38.7305 26.9674 38.4049 26.375 38.0859C24.7604 37.2135 23.9531 36.0384 23.9531 34.5605C23.9531 33.7923 24.168 33.1087 24.5977 32.5098C25.0339 31.9043 25.6556 31.4323 26.4629 31.0938C27.2767 30.7552 28.1882 30.5859 29.1973 30.5859C30.2129 30.5859 31.1178 30.7715 31.9121 31.1426C32.7064 31.5072 33.3216 32.0247 33.7578 32.6953C34.2005 33.3659 34.4219 34.1276 34.4219 34.9805H31.4922C31.4922 34.3294 31.2871 33.8249 30.877 33.4668C30.4668 33.1022 29.8906 32.9199 29.1484 32.9199C28.4323 32.9199 27.8757 33.0729 27.4785 33.3789C27.0814 33.6784 26.8828 34.0755 26.8828 34.5703C26.8828 35.0326 27.1139 35.4199 27.5762 35.7324C28.0449 36.0449 28.7318 36.3379 29.6367 36.6113C31.3034 37.1126 32.5176 37.7344 33.2793 38.4766C34.041 39.2188 34.4219 40.1432 34.4219 41.25C34.4219 42.4805 33.9564 43.4473 33.0254 44.1504C32.0944 44.847 30.8411 45.1953 29.2656 45.1953C28.1719 45.1953 27.1758 44.9967 26.2773 44.5996C25.3789 44.196 24.6921 43.6458 24.2168 42.9492C23.748 42.2526 23.5137 41.4453 23.5137 40.5273H26.4531C26.4531 42.0964 27.3906 42.8809 29.2656 42.8809C29.9622 42.8809 30.5059 42.7409 30.8965 42.4609C31.2871 42.1745 31.4824 41.7773 31.4824 41.2695ZM36.4141 45V30.7812H41.3945C43.1198 30.7812 44.4284 31.1133 45.3203 31.7773C46.2122 32.4349 46.6582 33.4017 46.6582 34.6777C46.6582 35.3743 46.4792 35.9896 46.1211 36.5234C45.763 37.0508 45.265 37.4382 44.627 37.6855C45.3561 37.8678 45.929 38.2357 46.3457 38.7891C46.7689 39.3424 46.9805 40.0195 46.9805 40.8203C46.9805 42.1875 46.5443 43.2227 45.6719 43.9258C44.7995 44.6289 43.556 44.987 41.9414 45H36.4141ZM39.3438 38.8086V42.6465H41.8535C42.5436 42.6465 43.0807 42.4837 43.4648 42.1582C43.8555 41.8262 44.0508 41.3704 44.0508 40.791C44.0508 39.4889 43.377 38.8281 42.0293 38.8086H39.3438ZM39.3438 36.7383H41.5117C42.9896 36.7122 43.7285 36.123 43.7285 34.9707C43.7285 34.3262 43.5397 33.8639 43.1621 33.584C42.791 33.2975 42.2018 33.1543 41.3945 33.1543H39.3438V36.7383ZM60.75 45H57.8203L52.1172 35.6445V45H49.1875V30.7812H52.1172L57.8301 40.1562V30.7812H60.75V45Z" fill="black"/>
</svg>
